<svg width="1002" height="192" viewBox="0 0 1002 192" fill="none" xmlns="http://www.w3.org/2000/svg">
<path d="M351.669 101.186H268.127C268.55 119.301 279.206 136.137 300.732 136.137C319.915 136.137 327.374 123.776 329.289 116.531H350.601C344.847 137.415 328.865 153.188 300.304 153.188C265.78 153.188 246.601 128.678 246.601 95.4325C246.601 61.3318 267.058 37.891 300.304 37.891C333.341 37.891 351.879 59.6303 351.879 93.2997C351.879 96.2832 351.879 99.4804 351.669 101.186ZM330.143 84.7765C330.143 67.7262 318.209 54.9414 299.667 54.9414C282.19 54.9414 269.405 66.8754 268.127 84.7765H330.143ZM396.837 149.99L358.052 41.3019H380.428L408.983 128.465H409.197L437.33 41.3019H459.07L420.284 149.99H396.837ZM495.283 149.99V41.3019H474.399V149.99H495.283ZM513.612 113.761H534.71C535.565 126.336 543.233 136.137 563.477 136.137C581.805 136.137 586.712 128.037 586.712 120.155C586.712 106.516 572.214 105.024 558.151 102.041C539.181 97.5653 517.45 92.0216 517.45 69.4316C517.45 50.6798 532.581 38.1047 558.792 38.1047C588.627 38.1047 602.903 54.0867 604.399 72.8424H583.301C581.805 64.529 577.334 54.9414 559.219 54.9414C545.148 54.9414 539.181 60.481 539.181 68.5808C539.181 79.8739 551.329 80.9422 566.674 84.3492C586.712 89.0381 608.443 94.7915 608.443 119.087C608.443 140.185 592.251 152.974 563.69 152.974C530.658 152.974 514.253 135.924 513.612 113.761ZM647.862 149.884V41.195H626.977V149.884H647.862ZM667.678 95.6461C667.678 61.7591 688.135 37.891 722.236 37.891C755.909 37.891 776.367 61.5455 776.367 95.4325C776.367 129.533 755.909 153.188 722.022 153.188C688.135 153.188 667.678 129.743 667.678 95.6461ZM754.627 95.6461C754.627 72.8424 744.395 55.3647 722.236 55.3647C699.642 55.3647 689.417 72.8424 689.417 95.6461C689.417 118.236 699.642 135.924 722.236 135.924C744.395 135.924 754.627 118.236 754.627 95.6461ZM889.519 74.5479V149.99H868.634V80.3012C868.634 65.811 862.24 56.0058 846.467 56.0058C828.566 56.0058 817.06 66.8754 817.06 83.2847V149.99H796.175V41.3019H817.06V54.9414H817.487C823.24 46.6279 834.533 38.1047 853.289 38.1047C873.319 38.1047 889.519 49.6114 889.519 74.5479ZM906.984 113.761H928.083C928.937 126.336 936.606 136.137 956.857 136.137C975.186 136.137 980.084 128.037 980.084 120.155C980.084 106.516 965.594 105.024 951.531 102.041C932.562 97.5653 910.823 92.0216 910.823 69.4316C910.823 50.6798 925.954 38.1047 952.164 38.1047C982.008 38.1047 996.284 54.0867 997.772 72.8424H976.674C975.186 64.529 970.707 54.9414 952.592 54.9414C938.529 54.9414 932.562 60.481 932.562 68.5808C932.562 79.8739 944.71 80.9422 960.055 84.3492C980.084 89.0381 1001.82 94.7915 1001.82 119.087C1001.82 140.185 985.624 152.974 957.071 152.974C924.039 152.974 907.625 135.924 906.984 113.761Z" fill="white"/>
<path d="M637.42 31.6715C644.292 31.6715 649.864 26.0999 649.864 19.2271C649.864 12.3542 644.292 6.78263 637.42 6.78263C630.547 6.78263 624.975 12.3542 624.975 19.2271C624.975 26.0999 630.547 31.6715 637.42 31.6715Z" fill="#E5712C"/>
<path d="M484.841 31.6715C491.714 31.6715 497.285 26.0999 497.285 19.2271C497.285 12.3542 491.714 6.78263 484.841 6.78263C477.968 6.78263 472.397 12.3542 472.397 19.2271C472.397 26.0999 477.968 31.6715 484.841 31.6715Z" fill="#E5712C"/>
<path d="M191.079 191.077H168.078V116.605C168.078 64.9912 126.087 23 74.4722 23H0V0H74.4722C138.769 0 191.079 52.3086 191.079 116.605V191.077Z" fill="#E5712C"/>
<path d="M74.4717 46H8.59375e-06L0 69H74.4717C83.4399 69 91.8349 71.4957 99.0042 75.8246L0.0122611 174.815L16.2761 191.079L115.264 92.0925C119.586 99.2574 122.077 107.645 122.077 116.605V191.077H145.078V116.605C145.078 77.6733 113.404 46 74.4717 46Z" fill="white"/>
<path d="M191.079 191.077H168.078V116.605C168.078 64.9912 126.087 23 74.4722 23H0V0H74.4722C138.769 0 191.079 52.3086 191.079 116.605V191.077Z" fill="#E5712C"/>
<path d="M74.4717 46H8.59375e-06L0 69H74.4717C83.4399 69 91.8349 71.4957 99.0042 75.8246L0.0122611 174.815L16.2761 191.079L115.264 92.0925C119.586 99.2574 122.077 107.645 122.077 116.605V191.077H145.078V116.605C145.078 77.6733 113.404 46 74.4717 46Z" fill="white"/>
</svg>
