<svg width="301" height="58" viewBox="0 0 301 58" fill="none" xmlns="http://www.w3.org/2000/svg">
<path d="M105.445 30.2899H80.4292C80.5559 35.7126 83.7467 40.7526 90.1922 40.7526C95.9363 40.7526 98.1697 37.0523 98.7431 34.8834H105.125C103.402 41.1352 98.6164 45.8567 90.0642 45.8567C79.7266 45.8567 73.9837 38.5199 73.9837 28.5677C73.9837 18.3596 80.1093 11.3427 90.0642 11.3427C99.9564 11.3427 105.507 17.8503 105.507 27.9292C105.507 28.8223 105.507 29.7794 105.445 30.2899ZM98.9991 25.3778C98.9991 20.2738 95.4256 16.4467 89.8735 16.4467C84.6401 16.4467 80.8119 20.0191 80.4292 25.3778H98.9991ZM118.969 44.8996L107.356 12.3637H114.056L122.606 38.4559H122.67L131.094 12.3637H137.604L125.99 44.8996H118.969ZM148.448 44.8996V12.3637H142.194V44.8996H148.448ZM153.936 34.0543H160.253C160.509 37.8186 162.805 40.7526 168.867 40.7526C174.355 40.7526 175.824 38.328 175.824 35.9684C175.824 31.8855 171.483 31.4389 167.272 30.5458C161.592 29.2061 155.085 27.5466 155.085 20.7843C155.085 15.171 159.616 11.4066 167.464 11.4066C176.398 11.4066 180.673 16.1908 181.121 21.8054H174.803C174.355 19.3167 173.016 16.4467 167.592 16.4467C163.379 16.4467 161.592 18.105 161.592 20.5296C161.592 23.9102 165.23 24.23 169.824 25.2499C175.824 26.6535 182.331 28.3758 182.331 35.6486C182.331 41.9644 177.483 45.7927 168.931 45.7927C159.04 45.7927 154.128 40.6887 153.936 34.0543ZM194.135 44.8676V12.3317H187.881V44.8676H194.135ZM200.068 28.6316C200.068 18.4876 206.194 11.3427 216.405 11.3427C226.488 11.3427 232.613 18.4236 232.613 28.5677C232.613 38.7757 226.488 45.8567 216.341 45.8567C206.194 45.8567 200.068 38.8385 200.068 28.6316ZM226.104 28.6316C226.104 21.8054 223.04 16.5734 216.405 16.5734C209.639 16.5734 206.578 21.8054 206.578 28.6316C206.578 35.394 209.639 40.6887 216.405 40.6887C223.04 40.6887 226.104 35.394 226.104 28.6316ZM266.495 22.3159V44.8996H260.241V24.0381C260.241 19.7005 258.327 16.7653 253.604 16.7653C248.244 16.7653 244.798 20.0191 244.798 24.9313V44.8996H238.545V12.3637H244.798V16.4467H244.926C246.649 13.958 250.03 11.4066 255.647 11.4066C261.644 11.4066 266.495 14.8511 266.495 22.3159ZM271.725 34.0543H278.042C278.298 37.8186 280.594 40.7526 286.658 40.7526C292.147 40.7526 293.613 38.328 293.613 35.9684C293.613 31.8855 289.275 31.4389 285.064 30.5458C279.384 29.2061 272.874 27.5466 272.874 20.7843C272.874 15.171 277.405 11.4066 285.253 11.4066C294.189 11.4066 298.464 16.1908 298.91 21.8054H292.592C292.147 19.3167 290.805 16.4467 285.381 16.4467C281.17 16.4467 279.384 18.105 279.384 20.5296C279.384 23.9102 283.021 24.23 287.616 25.2499C293.613 26.6535 300.123 28.3758 300.123 35.6486C300.123 41.9644 295.272 45.7927 286.722 45.7927C276.831 45.7927 271.917 40.6887 271.725 34.0543Z" fill="#202020"/>
<path d="M191.008 9.48088C193.066 9.48088 194.734 7.81303 194.734 5.75564C194.734 3.69824 193.066 2.0304 191.008 2.0304C188.95 2.0304 187.282 3.69824 187.282 5.75564C187.282 7.81303 188.95 9.48088 191.008 9.48088Z" fill="#E5712C"/>
<path d="M145.321 9.48088C147.379 9.48088 149.047 7.81303 149.047 5.75564C149.047 3.69824 147.379 2.0304 145.321 2.0304C143.263 2.0304 141.594 3.69824 141.594 5.75564C141.594 7.81303 143.263 9.48088 145.321 9.48088Z" fill="#E5712C"/>
<path d="M57.2154 57.1987H50.3283V34.9057C50.3283 19.4551 37.7546 6.88504 22.2995 6.88504H0V0H22.2995C41.5522 0 57.2154 15.6586 57.2154 34.9057V57.1987Z" fill="#E5712C"/>
<path d="M22.2993 13.7701H2.57326e-06L0 20.6552H22.2993C24.9847 20.6552 27.4985 21.4023 29.6452 22.6981L0.00367138 52.3309L4.87363 57.1994L34.5139 27.5679C35.808 29.7127 36.5541 32.2236 36.5541 34.9057V57.1988H43.4411V34.9057C43.4411 23.2515 33.9569 13.7701 22.2993 13.7701Z" fill="#202020"/>
</svg>
